<mxfile host="app.diagrams.net" modified="2021-11-12T10:03:02.388Z" agent="5.0 (Macintosh; Intel Mac OS X 10_15_7) AppleWebKit/537.36 (KHTML, like Gecko) Chrome/95.0.4638.69 Safari/537.36" etag="d17tF10r-kduvwSnnO31" version="15.7.3" type="github">
  <diagram id="eepcZz_e675YRLKvBPKT" name="Page-1">
    <mxGraphModel dx="1426" dy="769" grid="0" gridSize="10" guides="1" tooltips="1" connect="1" arrows="1" fold="1" page="1" pageScale="1" pageWidth="850" pageHeight="1100" background="#DAD2D8" math="0" shadow="0">
      <root>
        <mxCell id="0" />
        <mxCell id="1" parent="0" />
        <mxCell id="Ki2qgAUkxYtfGfiVRThg-18" style="edgeStyle=orthogonalEdgeStyle;orthogonalLoop=1;jettySize=auto;html=1;exitX=0.75;exitY=0;exitDx=0;exitDy=0;fontSize=18;entryX=0.61;entryY=0.958;entryDx=0;entryDy=0;entryPerimeter=0;strokeColor=#A8201A;fontColor=#143642;labelBackgroundColor=#DAD2D8;sketch=1;curved=1;" parent="1" source="Ki2qgAUkxYtfGfiVRThg-4" target="Ki2qgAUkxYtfGfiVRThg-11" edge="1">
          <mxGeometry relative="1" as="geometry">
            <mxPoint x="120" y="204" as="targetPoint" />
          </mxGeometry>
        </mxCell>
        <mxCell id="Ki2qgAUkxYtfGfiVRThg-4" value="&lt;font style=&quot;font-size: 12px&quot;&gt;Sourcer&lt;/font&gt;" style="whiteSpace=wrap;html=1;fillColor=#FAE5C7;strokeColor=#0F8B8D;fontColor=#143642;sketch=1;rounded=1;" parent="1" vertex="1">
          <mxGeometry x="19" y="300" width="81" height="31" as="geometry" />
        </mxCell>
        <mxCell id="Ki2qgAUkxYtfGfiVRThg-5" value="&lt;font style=&quot;font-size: 12px&quot;&gt;Creator&lt;/font&gt;" style="whiteSpace=wrap;html=1;fillColor=#FAE5C7;strokeColor=#0F8B8D;fontColor=#143642;sketch=1;rounded=1;" parent="1" vertex="1">
          <mxGeometry x="152" y="298" width="87" height="31" as="geometry" />
        </mxCell>
        <mxCell id="Ki2qgAUkxYtfGfiVRThg-6" value="&lt;font style=&quot;font-size: 12px&quot;&gt;Validator&lt;/font&gt;" style="whiteSpace=wrap;html=1;fillColor=#FAE5C7;strokeColor=#0F8B8D;fontColor=#143642;sketch=1;rounded=1;" parent="1" vertex="1">
          <mxGeometry x="147" y="398.88" width="85" height="27.12" as="geometry" />
        </mxCell>
        <mxCell id="Ki2qgAUkxYtfGfiVRThg-21" style="edgeStyle=orthogonalEdgeStyle;orthogonalLoop=1;jettySize=auto;html=1;exitX=0.5;exitY=1;exitDx=0;exitDy=0;entryX=0.633;entryY=0.014;entryDx=0;entryDy=0;entryPerimeter=0;fontSize=9;strokeColor=#A8201A;fontColor=#143642;labelBackgroundColor=#DAD2D8;sketch=1;curved=1;" parent="1" source="Ki2qgAUkxYtfGfiVRThg-9" target="Ki2qgAUkxYtfGfiVRThg-20" edge="1">
          <mxGeometry relative="1" as="geometry" />
        </mxCell>
        <mxCell id="Ki2qgAUkxYtfGfiVRThg-32" style="edgeStyle=orthogonalEdgeStyle;orthogonalLoop=1;jettySize=auto;html=1;exitX=0.5;exitY=0;exitDx=0;exitDy=0;strokeColor=#A8201A;fontColor=#143642;labelBackgroundColor=#DAD2D8;entryX=0.5;entryY=0;entryDx=0;entryDy=0;sketch=1;curved=1;" parent="1" source="Ki2qgAUkxYtfGfiVRThg-9" target="Ki2qgAUkxYtfGfiVRThg-31" edge="1">
          <mxGeometry relative="1" as="geometry">
            <mxPoint x="299" y="419" as="targetPoint" />
            <Array as="points">
              <mxPoint x="65" y="367" />
              <mxPoint x="299" y="367" />
              <mxPoint x="299" y="426" />
            </Array>
          </mxGeometry>
        </mxCell>
        <mxCell id="Ki2qgAUkxYtfGfiVRThg-9" value="&lt;font style=&quot;font-size: 12px&quot;&gt;Transformer&lt;/font&gt;" style="whiteSpace=wrap;html=1;fontSize=18;fillColor=#FAE5C7;strokeColor=#0F8B8D;fontColor=#143642;sketch=1;rounded=1;" parent="1" vertex="1">
          <mxGeometry x="18" y="408" width="93" height="45.5" as="geometry" />
        </mxCell>
        <mxCell id="Ki2qgAUkxYtfGfiVRThg-16" style="edgeStyle=orthogonalEdgeStyle;orthogonalLoop=1;jettySize=auto;html=1;exitX=0.31;exitY=0.8;exitDx=0;exitDy=0;exitPerimeter=0;fontSize=18;strokeColor=#A8201A;fontColor=#143642;labelBackgroundColor=#DAD2D8;sketch=1;curved=1;" parent="1" source="Ki2qgAUkxYtfGfiVRThg-11" target="Ki2qgAUkxYtfGfiVRThg-4" edge="1">
          <mxGeometry relative="1" as="geometry" />
        </mxCell>
        <mxCell id="Ki2qgAUkxYtfGfiVRThg-38" style="edgeStyle=orthogonalEdgeStyle;orthogonalLoop=1;jettySize=auto;html=1;exitX=0.875;exitY=0.5;exitDx=0;exitDy=0;exitPerimeter=0;entryX=0.936;entryY=0;entryDx=0;entryDy=0;entryPerimeter=0;strokeColor=#A8201A;fontColor=#143642;labelBackgroundColor=#DAD2D8;sketch=1;curved=1;" parent="1" source="Ki2qgAUkxYtfGfiVRThg-11" target="Ki2qgAUkxYtfGfiVRThg-35" edge="1">
          <mxGeometry relative="1" as="geometry" />
        </mxCell>
        <mxCell id="Ki2qgAUkxYtfGfiVRThg-11" value="Blockchain" style="ellipse;shape=cloud;whiteSpace=wrap;html=1;fontSize=18;fillColor=#FAE5C7;strokeColor=#0F8B8D;fontColor=#143642;sketch=1;rounded=1;" parent="1" vertex="1">
          <mxGeometry x="29" y="73" width="154" height="95" as="geometry" />
        </mxCell>
        <mxCell id="Ki2qgAUkxYtfGfiVRThg-19" value="&lt;font style=&quot;font-size: 9px&quot;&gt;short polling&lt;/font&gt;" style="text;html=1;align=center;verticalAlign=middle;resizable=0;points=[];autosize=1;strokeColor=none;fillColor=none;fontSize=18;rotation=90;fontColor=#143642;sketch=1;rounded=1;" parent="1" vertex="1">
          <mxGeometry x="105" y="203" width="59" height="29" as="geometry" />
        </mxCell>
        <mxCell id="Ki2qgAUkxYtfGfiVRThg-20" value="Data Storage" style="shape=datastore;whiteSpace=wrap;html=1;fontSize=9;fillColor=#FAE5C7;strokeColor=#0F8B8D;fontColor=#143642;sketch=1;rounded=1;" parent="1" vertex="1">
          <mxGeometry x="282" y="550" width="84" height="85" as="geometry" />
        </mxCell>
        <mxCell id="Ki2qgAUkxYtfGfiVRThg-27" value="Block Event Handler" style="text;html=1;align=center;verticalAlign=middle;resizable=0;points=[];autosize=1;strokeColor=none;fillColor=none;fontSize=12;rotation=0;fontColor=#143642;sketch=1;rounded=1;" parent="1" vertex="1">
          <mxGeometry x="57" y="522" width="119" height="18" as="geometry" />
        </mxCell>
        <mxCell id="Ki2qgAUkxYtfGfiVRThg-29" value="&lt;font style=&quot;font-size: 9px&quot;&gt;blocks&lt;/font&gt;" style="text;html=1;align=center;verticalAlign=middle;resizable=0;points=[];autosize=1;strokeColor=none;fillColor=none;fontSize=12;rotation=90;fontColor=#143642;sketch=1;rounded=1;" parent="1" vertex="1">
          <mxGeometry x="53" y="184" width="36" height="19" as="geometry" />
        </mxCell>
        <mxCell id="Ki2qgAUkxYtfGfiVRThg-31" value="Notifier" style="whiteSpace=wrap;html=1;fillColor=none;strokeColor=#0F8B8D;fontColor=#143642;sketch=1;rounded=1;" parent="1" vertex="1">
          <mxGeometry x="278" y="427.5" width="55" height="26" as="geometry" />
        </mxCell>
        <mxCell id="Ki2qgAUkxYtfGfiVRThg-34" style="edgeStyle=orthogonalEdgeStyle;orthogonalLoop=1;jettySize=auto;html=1;exitX=0.5;exitY=0;exitDx=0;exitDy=0;entryX=0.5;entryY=1;entryDx=0;entryDy=0;strokeColor=#A8201A;fontColor=#143642;labelBackgroundColor=#DAD2D8;sketch=1;curved=1;" parent="1" source="Ki2qgAUkxYtfGfiVRThg-33" target="Ki2qgAUkxYtfGfiVRThg-20" edge="1">
          <mxGeometry relative="1" as="geometry" />
        </mxCell>
        <mxCell id="Ki2qgAUkxYtfGfiVRThg-33" value="Address History/State&lt;br&gt;Blockchain data" style="whiteSpace=wrap;html=1;fillColor=none;strokeColor=#0F8B8D;fontColor=#143642;sketch=1;rounded=1;" parent="1" vertex="1">
          <mxGeometry x="255" y="740" width="120" height="60" as="geometry" />
        </mxCell>
        <mxCell id="Ki2qgAUkxYtfGfiVRThg-36" style="edgeStyle=orthogonalEdgeStyle;orthogonalLoop=1;jettySize=auto;html=1;exitX=0.5;exitY=0;exitDx=0;exitDy=0;strokeColor=#A8201A;fontColor=#143642;labelBackgroundColor=#DAD2D8;sketch=1;curved=1;" parent="1" source="Ki2qgAUkxYtfGfiVRThg-35" target="Ki2qgAUkxYtfGfiVRThg-11" edge="1">
          <mxGeometry relative="1" as="geometry">
            <mxPoint x="281.3333333333335" y="129" as="targetPoint" />
            <Array as="points">
              <mxPoint x="655" y="193" />
              <mxPoint x="106" y="193" />
            </Array>
          </mxGeometry>
        </mxCell>
        <mxCell id="Ki2qgAUkxYtfGfiVRThg-35" value="Broadcaster" style="whiteSpace=wrap;html=1;fillColor=none;strokeColor=#0F8B8D;fontColor=#143642;sketch=1;rounded=1;" parent="1" vertex="1">
          <mxGeometry x="577" y="279" width="156" height="94" as="geometry" />
        </mxCell>
        <mxCell id="Ki2qgAUkxYtfGfiVRThg-37" value="broadcast transactions to blockchain" style="text;html=1;align=center;verticalAlign=middle;resizable=0;points=[];autosize=1;strokeColor=none;fillColor=none;fontColor=#143642;sketch=1;rounded=1;" parent="1" vertex="1">
          <mxGeometry x="322" y="178" width="204" height="18" as="geometry" />
        </mxCell>
        <mxCell id="Ki2qgAUkxYtfGfiVRThg-39" value="receives transaction hash if broadcast everything is successful" style="text;html=1;align=center;verticalAlign=middle;resizable=0;points=[];autosize=1;strokeColor=none;fillColor=none;fontColor=#143642;sketch=1;rounded=1;rotation=5;" parent="1" vertex="1">
          <mxGeometry x="240" y="96" width="342" height="18" as="geometry" />
        </mxCell>
        <mxCell id="Ki2qgAUkxYtfGfiVRThg-41" style="edgeStyle=orthogonalEdgeStyle;orthogonalLoop=1;jettySize=auto;html=1;exitX=0.5;exitY=0;exitDx=0;exitDy=0;entryX=0.396;entryY=1.002;entryDx=0;entryDy=0;entryPerimeter=0;strokeColor=#A8201A;fontColor=#143642;labelBackgroundColor=#DAD2D8;sketch=1;curved=1;" parent="1" source="Ki2qgAUkxYtfGfiVRThg-40" target="Ki2qgAUkxYtfGfiVRThg-35" edge="1">
          <mxGeometry relative="1" as="geometry" />
        </mxCell>
        <mxCell id="Ki2qgAUkxYtfGfiVRThg-44" style="edgeStyle=orthogonalEdgeStyle;orthogonalLoop=1;jettySize=auto;html=1;exitX=0;exitY=0.5;exitDx=0;exitDy=0;entryX=0.994;entryY=0.792;entryDx=0;entryDy=0;entryPerimeter=0;strokeColor=#A8201A;fontColor=#143642;labelBackgroundColor=#DAD2D8;sketch=1;curved=1;" parent="1" source="Ki2qgAUkxYtfGfiVRThg-40" target="Ki2qgAUkxYtfGfiVRThg-20" edge="1">
          <mxGeometry relative="1" as="geometry" />
        </mxCell>
        <mxCell id="Ki2qgAUkxYtfGfiVRThg-51" style="edgeStyle=orthogonalEdgeStyle;orthogonalLoop=1;jettySize=auto;html=1;exitX=0;exitY=0.5;exitDx=0;exitDy=0;entryX=1;entryY=0.5;entryDx=0;entryDy=0;fontColor=#143642;strokeColor=#A8201A;fillColor=#FAE5C7;labelBackgroundColor=#DAD2D8;sketch=1;curved=1;" parent="1" source="Ki2qgAUkxYtfGfiVRThg-40" target="Ki2qgAUkxYtfGfiVRThg-31" edge="1">
          <mxGeometry relative="1" as="geometry" />
        </mxCell>
        <mxCell id="Ki2qgAUkxYtfGfiVRThg-55" style="edgeStyle=orthogonalEdgeStyle;orthogonalLoop=1;jettySize=auto;html=1;exitX=0.25;exitY=0;exitDx=0;exitDy=0;entryX=0.5;entryY=1;entryDx=0;entryDy=0;fontColor=#143642;strokeColor=#A8201A;fillColor=#FAE5C7;labelBackgroundColor=#DAD2D8;sketch=1;curved=1;" parent="1" source="Ki2qgAUkxYtfGfiVRThg-40" target="Ki2qgAUkxYtfGfiVRThg-54" edge="1">
          <mxGeometry relative="1" as="geometry" />
        </mxCell>
        <mxCell id="Ki2qgAUkxYtfGfiVRThg-40" value="Broadcast Immediate Queue on Failure" style="whiteSpace=wrap;html=1;fillColor=none;strokeColor=#0F8B8D;fontColor=#143642;sketch=1;rounded=1;" parent="1" vertex="1">
          <mxGeometry x="577" y="469" width="120" height="60" as="geometry" />
        </mxCell>
        <mxCell id="Ki2qgAUkxYtfGfiVRThg-43" style="edgeStyle=orthogonalEdgeStyle;orthogonalLoop=1;jettySize=auto;html=1;exitX=0.75;exitY=0;exitDx=0;exitDy=0;strokeColor=#A8201A;fontColor=#143642;labelBackgroundColor=#DAD2D8;sketch=1;curved=1;" parent="1" source="Ki2qgAUkxYtfGfiVRThg-42" target="Ki2qgAUkxYtfGfiVRThg-40" edge="1">
          <mxGeometry relative="1" as="geometry" />
        </mxCell>
        <mxCell id="Ki2qgAUkxYtfGfiVRThg-42" value="Broadcast Transactions" style="whiteSpace=wrap;html=1;fillColor=none;strokeColor=#0F8B8D;fontColor=#143642;sketch=1;rounded=1;" parent="1" vertex="1">
          <mxGeometry x="572" y="740" width="120" height="60" as="geometry" />
        </mxCell>
        <mxCell id="Ki2qgAUkxYtfGfiVRThg-45" value="Broadcast Event Handler" style="text;html=1;align=center;verticalAlign=middle;resizable=0;points=[];autosize=1;strokeColor=none;fillColor=none;rotation=90;fontColor=#143642;sketch=1;rounded=1;" parent="1" vertex="1">
          <mxGeometry x="729" y="380.88" width="143" height="18" as="geometry" />
        </mxCell>
        <mxCell id="Ki2qgAUkxYtfGfiVRThg-46" value="&lt;font style=&quot;font-size: 18px&quot;&gt;Rest Api&lt;/font&gt;" style="text;html=1;align=center;verticalAlign=middle;resizable=0;points=[];autosize=1;strokeColor=none;fillColor=none;fontColor=#143642;sketch=1;rounded=1;" parent="1" vertex="1">
          <mxGeometry x="271" y="803" width="77" height="20" as="geometry" />
        </mxCell>
        <mxCell id="Ki2qgAUkxYtfGfiVRThg-47" value="Rest Api" style="text;html=1;align=center;verticalAlign=middle;resizable=0;points=[];autosize=1;strokeColor=none;fillColor=none;fontSize=18;fontColor=#143642;sketch=1;rounded=1;" parent="1" vertex="1">
          <mxGeometry x="589" y="800" width="77" height="26" as="geometry" />
        </mxCell>
        <mxCell id="Ki2qgAUkxYtfGfiVRThg-61" style="edgeStyle=orthogonalEdgeStyle;orthogonalLoop=1;jettySize=auto;html=1;exitX=1.017;exitY=0.575;exitDx=0;exitDy=0;entryX=0.25;entryY=1;entryDx=0;entryDy=0;fontColor=#143642;strokeColor=#A8201A;fillColor=#FAE5C7;labelBackgroundColor=#DAD2D8;exitPerimeter=0;sketch=1;curved=1;" parent="1" target="Ki2qgAUkxYtfGfiVRThg-54" edge="1">
          <mxGeometry relative="1" as="geometry">
            <mxPoint x="255.07999999999993" y="405" as="sourcePoint" />
          </mxGeometry>
        </mxCell>
        <mxCell id="Ki2qgAUkxYtfGfiVRThg-52" value="Notify Broadcast Failure After Retries&lt;br&gt;&amp;nbsp;" style="text;html=1;align=center;verticalAlign=middle;resizable=0;points=[];autosize=1;strokeColor=none;fillColor=none;fontColor=#143642;rotation=15;sketch=1;rounded=1;" parent="1" vertex="1">
          <mxGeometry x="331" y="432" width="207" height="32" as="geometry" />
        </mxCell>
        <mxCell id="Ki2qgAUkxYtfGfiVRThg-65" style="edgeStyle=orthogonalEdgeStyle;orthogonalLoop=1;jettySize=auto;html=1;exitX=0.25;exitY=0;exitDx=0;exitDy=0;entryX=0.75;entryY=0;entryDx=0;entryDy=0;fontColor=#143642;strokeColor=#A8201A;fillColor=#FAE5C7;labelBackgroundColor=#DAD2D8;sketch=1;curved=1;" parent="1" source="Ki2qgAUkxYtfGfiVRThg-54" target="Ki2qgAUkxYtfGfiVRThg-75" edge="1">
          <mxGeometry relative="1" as="geometry">
            <mxPoint x="131" y="267" as="targetPoint" />
          </mxGeometry>
        </mxCell>
        <mxCell id="Ki2qgAUkxYtfGfiVRThg-54" value="Queue" style="whiteSpace=wrap;html=1;fontColor=#143642;strokeColor=#0F8B8D;fillColor=none;sketch=1;rounded=1;" parent="1" vertex="1">
          <mxGeometry x="307.5" y="222" width="233" height="60" as="geometry" />
        </mxCell>
        <mxCell id="Ki2qgAUkxYtfGfiVRThg-56" value="" style="whiteSpace=wrap;html=1;aspect=fixed;fontColor=#143642;strokeColor=#0F8B8D;fillColor=none;sketch=1;rounded=1;" parent="1" vertex="1">
          <mxGeometry x="531" y="277" width="255" height="255" as="geometry" />
        </mxCell>
        <mxCell id="Ki2qgAUkxYtfGfiVRThg-57" value="Queue Failed Broacast For Retry" style="text;html=1;align=center;verticalAlign=middle;resizable=0;points=[];autosize=1;strokeColor=none;fillColor=none;fontColor=#143642;rotation=30;sketch=1;rounded=1;" parent="1" vertex="1">
          <mxGeometry x="363" y="361" width="186" height="18" as="geometry" />
        </mxCell>
        <mxCell id="Ki2qgAUkxYtfGfiVRThg-66" value="uses queue for messaging" style="text;html=1;align=center;verticalAlign=middle;resizable=0;points=[];autosize=1;strokeColor=none;fillColor=none;fontColor=#143642;rotation=60;sketch=1;rounded=1;" parent="1" vertex="1">
          <mxGeometry x="220" y="282" width="151" height="18" as="geometry" />
        </mxCell>
        <mxCell id="Ki2qgAUkxYtfGfiVRThg-71" value="notify address watchers" style="text;html=1;align=center;verticalAlign=middle;resizable=0;points=[];autosize=1;strokeColor=none;fillColor=none;fontColor=#143642;sketch=1;rounded=1;" parent="1" vertex="1">
          <mxGeometry x="89" y="347" width="136" height="18" as="geometry" />
        </mxCell>
        <mxCell id="Ki2qgAUkxYtfGfiVRThg-72" value="store broadcast request and status" style="text;html=1;align=center;verticalAlign=middle;resizable=0;points=[];autosize=1;strokeColor=none;fillColor=none;fontColor=#143642;rotation=-45;sketch=1;rounded=1;" parent="1" vertex="1">
          <mxGeometry x="371" y="596" width="195" height="18" as="geometry" />
        </mxCell>
        <mxCell id="Ki2qgAUkxYtfGfiVRThg-73" value="store events and update entity states" style="text;html=1;align=center;verticalAlign=middle;resizable=0;points=[];autosize=1;strokeColor=none;fillColor=none;fontColor=#143642;rotation=0;sketch=1;rounded=1;" parent="1" vertex="1">
          <mxGeometry x="46" y="475" width="206" height="18" as="geometry" />
        </mxCell>
        <mxCell id="Ki2qgAUkxYtfGfiVRThg-75" value="" style="whiteSpace=wrap;html=1;aspect=fixed;fontColor=#143642;strokeColor=#0F8B8D;fillColor=none;sketch=1;rounded=1;" parent="1" vertex="1">
          <mxGeometry x="13" y="274" width="248" height="248" as="geometry" />
        </mxCell>
      </root>
    </mxGraphModel>
  </diagram>
</mxfile>
